<svg width="18" height="18" viewBox="0 0 18 18" fill="none" xmlns="http://www.w3.org/2000/svg">
<rect width="18" height="18" fill="#F5F5F5"/>
<g id="Login">
<path d="M-2552 -617C-2552 -618.105 -2551.1 -619 -2550 -619H9834C9835.1 -619 9836 -618.105 9836 -617V6981C9836 6982.1 9835.1 6983 9834 6983H-2550C-2551.1 6983 -2552 6982.1 -2552 6981V-617Z" fill="white"/>
<path d="M-2552 -617C-2552 -618.105 -2551.1 -619 -2550 -619H9834C9835.1 -619 9836 -618.105 9836 -617V6981C9836 6982.1 9835.1 6983 9834 6983H-2550C-2551.1 6983 -2552 6982.1 -2552 6981V-617Z" fill="#F16822" fill-opacity="0.05"/>
<path d="M-2550 -618H9834V-620H-2550V-618ZM9835 -617V6981H9837V-617H9835ZM9834 6982H-2550V6984H9834V6982ZM-2551 6981V-617H-2553V6981H-2551ZM-2550 6982C-2550.55 6982 -2551 6981.55 -2551 6981H-2553C-2553 6982.66 -2551.66 6984 -2550 6984V6982ZM9835 6981C9835 6981.55 9834.55 6982 9834 6982V6984C9835.66 6984 9837 6982.66 9837 6981H9835ZM9834 -618C9834.55 -618 9835 -617.552 9835 -617H9837C9837 -618.657 9835.66 -620 9834 -620V-618ZM-2550 -620C-2551.66 -620 -2553 -618.657 -2553 -617H-2551C-2551 -617.552 -2550.55 -618 -2550 -618V-620Z" fill="black" fill-opacity="0.1"/>
<g id="Login_2">
<rect width="1728" height="1117" transform="translate(-167 -53)" fill="white"/>
<g id="Navbar">
<path d="M-167 -53H4C31.6142 -53 54 -30.6142 54 -3V1014C54 1041.61 31.6142 1064 4 1064H-167V-53Z" fill="white"/>
<path d="M-167 -53H4C31.6142 -53 54 -30.6142 54 -3V1014C54 1041.61 31.6142 1064 4 1064H-167V-53Z" fill="#F16822" fill-opacity="0.02"/>
<path id="Vector" d="M1.425 18L0 16.575L4.6 12H2V10H8V16H6V13.4L1.425 18ZM10 8V2H12V4.6L16.575 0L18 1.425L13.4 6H16V8H10Z" fill="#828282"/>
</g>
</g>
</g>
</svg>
